<svg xmlns="http://www.w3.org/2000/svg">
  <svg id="send" viewBox="0 0 24 24">
    <path d="M2.01 21L23 12 2.01 3 2 10l15 2-15 2z"/>
    <path d="M0 0h24v24H0z" fill="none"/>
  </svg>
  <svg id="members" viewBox="0 0 24 24">
    <path d="M9 11.75c-.69 0-1.25.56-1.25 1.25s.56 1.25 1.25 1.25 1.25-.56 1.25-1.25-.56-1.25-1.25-1.25zm6 0c-.69 0-1.25.56-1.25 1.25s.56 1.25 1.25 1.25 1.25-.56 1.25-1.25-.56-1.25-1.25-1.25zM12 2C6.48 2 2 6.48 2 12s4.48 10 10 10 10-4.48 10-10S17.52 2 12 2zm0 18c-4.41 0-8-3.59-8-8 0-.29.02-.58.05-.86 2.36-1.05 4.23-2.98 5.21-5.37C11.07 8.33 14.05 10 17.42 10c.78 0 1.53-.09 2.25-.26.21.71.33 1.47.33 2.26 0 4.41-3.59 8-8 8z"/>
    <path d="M0 0h24v24H0z" fill="none"/>
  </svg>
  <svg id="add" viewBox="0 0 24 24">
    <path d="M19 13h-6v6h-2v-6H5v-2h6V5h2v6h6v2z"/>
    <path d="M0 0h24v24H0z" fill="none"/>
  </svg>
  <svg id="menu" viewBox="0 0 24 24">
    <path d="M0 0h24v24H0z" fill="none"/>
    <path d="M3 18h18v-2H3v2zm0-5h18v-2H3v2zm0-7v2h18V6H3z"/>
  </svg>
  <svg id="public" viewBox="0 0 24 24">
      <path d="M0 0h24v24H0z" fill="none"/>
      <path d="M12 2C6.48 2 2 6.48 2 12s4.48 10 10 10 10-4.48 10-10S17.52 2 12 2zm-1 17.93c-3.95-.49-7-3.85-7-7.93 0-.62.08-1.21.21-1.79L9 15v1c0 1.1.9 2 2 2v1.93zm6.9-2.54c-.26-.81-1-1.39-1.9-1.39h-1v-3c0-.55-.45-1-1-1H8v-2h2c.55 0 1-.45 1-1V7h2c1.1 0 2-.9 2-2v-.41c2.93 1.19 5 4.06 5 7.41 0 2.08-.8 3.97-2.1 5.39z"/>
  </svg>
</svg>
